<?xml version="1.0" standalone="no"?><!DOCTYPE svg PUBLIC "-//W3C//DTD SVG 1.1//EN" "http://www.w3.org/Graphics/SVG/1.1/DTD/svg11.dtd"><svg t="1495518875616" class="icon" style="" viewBox="0 0 1024 1024" version="1.1" xmlns="http://www.w3.org/2000/svg" p-id="4323" xmlns:xlink="http://www.w3.org/1999/xlink" width="30" height="32"><defs><style type="text/css"></style></defs><path d="M960.207603 153.137773l0 717.706035c0 33.218566-27.201525 60.419068-60.383252 60.419068l-775.614933 0c-33.217543 0-60.418045-27.218922-60.418045-60.419068l0-717.706035c0-33.181727 27.200502-60.399625 60.418045-60.399625l105.171318 0 0 63.996546c-19.154245 9.007141-32.344662 28.482705-32.344662 51.054793 0 31.18935 25.224498 56.413847 56.359612 56.413847 31.152511 0 56.44864-25.224498 56.44864-56.413847 0-22.48306-13.154601-41.868573-32.16763-50.947346L277.676695 92.737124l134.472668 0 0 63.996546c-19.082614 9.007141-32.363082 28.482705-32.363082 51.054793 0 31.18935 25.27771 56.413847 56.44864 56.413847 31.135114 0 56.359612-25.224498 56.359612-56.413847 0-22.48306-13.119809-41.868573-32.150234-50.947346L460.444299 92.737124 589.560982 92.737124l0 63.996546c-19.172665 9.007141-32.434713 28.482705-32.434713 51.054793 0 31.18935 25.261337 56.413847 56.44864 56.413847 31.152511 0 56.431244-25.224498 56.431244-56.413847 0-22.48306-13.138228-41.868573-32.168654-50.947346L637.837498 92.737124l126.0703 0 0 63.996546c-19.101033 9.007141-32.363082 28.482705-32.363082 51.054793 0 31.18935 25.261337 56.413847 56.431244 56.413847 31.17093 0 56.395428-25.224498 56.395428-56.413847 0-22.48306-13.137205-41.868573-32.114418-50.947346L812.25697 92.737124l87.566358 0C933.060313 92.737124 960.207603 119.937626 960.207603 153.137773L960.207603 153.137773zM168.445922 335.889003l0 456.878588 702.378955 0L870.824877 335.889003 168.445922 335.889003 168.445922 335.889003zM460.695009 387.620202l-49.471738 0c-21.077038 27.200502-51.979862 45.198411-92.638887 53.849442l0 39.217187 8.295943 0c19.438725 0 31.953759 1.351787 37.59627 4.058432 5.589298 2.706645 9.008164 6.764054 10.270924 12.034081 1.211595 5.269004 1.86958 21.042245 1.86958 47.245024l0 181.310416 84.076884 0L460.693985 387.620202 460.695009 387.620202zM677.571455 387.620202 496.530169 387.620202l-3.400446 170.360016 83.240843 0c0-9.826809 0.337691-16.074094 1.121544-18.798135 0.801249-2.669806 2.580778-5.16258 5.251607-7.512091 2.63399-2.366907 6.034437-3.596921 10.003841-3.596921 6.160303 0 10.663874 2.296299 13.316284 6.836709 2.65241 4.66423 4.058432 13.154601 4.058432 25.812899l0 66.773799c-0.337691 23.409153-0.533143 36.635385-0.729617 39.715537-0.195451 3.061732-1.673106 5.838985-4.237511 8.472975-2.65241 2.635013-6.106068 3.952009-10.341532 3.952009-9.203616 0-14.544251-4.52199-16.093537-13.724583-1.549286-9.1678-2.349511-24.583908-2.349511-46.373167l0-20.98801-84.1127 0 0 18.371416c0 31.347962 3.453658 54.56064 10.484795 69.550029 6.978948 15.025205 18.710131 26.347065 35.282574 33.894971 16.573467 7.636934 35.69292 11.392468 57.427944 11.392468 19.368116 0 35.691897-2.563382 49.149397-7.653307 13.4575-5.02034 23.925922-12.354376 31.438013-21.807678 7.494695-9.559727 12.390191-19.937075 14.758122-31.100322 2.278903-11.17962 3.417843-28.749788 3.417843-52.603055L694.216553 570.424644c0-37.008892-5.963829-61.96733-17.854647-74.927503-11.962449-13.012362-29.569456-19.509333-52.816926-19.509333-20.667715 0-37.490869 7.690146-50.591235 23.141046l0-57.729819 104.618732 0L677.572478 387.620202z" p-id="4324"></path><path d="M205.776132 433.69047c-5.037736 0-9.113565-4.075829-9.113565-9.113565l0-21.807678c0-19.47454 15.842827-35.31839 35.31839-35.31839l104.60236 0c5.037736 0 9.113565 4.075829 9.113565 9.113565 0 5.03876-4.075829 9.114588-9.113565 9.114588l-104.60236 0c-9.416464 0-17.089214 7.66354-17.089214 17.089214l0 21.807678C214.89072 429.613618 210.813868 433.69047 205.776132 433.69047z" p-id="4325"></path><path d="M205.776132 467.282542c-5.037736 0-9.113565-4.075829-9.113565-9.114588l0-9.594519c0-5.03876 4.075829-9.114588 9.113565-9.114588s9.114588 4.075829 9.114588 9.114588l0 9.594519C214.89072 463.205691 210.813868 467.282542 205.776132 467.282542z" p-id="4326"></path></svg>