<?xml version="1.0" standalone="no"?><!DOCTYPE svg PUBLIC "-//W3C//DTD SVG 1.1//EN" "http://www.w3.org/Graphics/SVG/1.1/DTD/svg11.dtd"><svg class="icon" width="32px" height="32.00px" viewBox="0 0 1024 1024" version="1.1" xmlns="http://www.w3.org/2000/svg"><path fill="#3fc4e4" d="M928 938.688l-832 0c-52.992 0-96-44.096-96-98.432L0 315.072c0-54.4 43.008-98.432 96-98.432L256 216.64 256 183.808c0-54.4 43.008-98.496 96-98.496l320 0c52.992 0 96 44.096 96 98.496l0 32.832 160 0c52.992 0 96 44.096 96 98.432l0 525.12C1024 894.592 980.992 938.688 928 938.688zM934.976 343.424c0-25.408-20.288-45.952-45.312-45.952l-196.352 0L693.312 220.864c0-25.408-20.288-45.952-45.312-45.952L376.064 174.912c-25.024 0-45.312 20.608-45.312 45.952l0 76.608L134.336 297.472c-25.024 0-45.312 20.608-45.312 45.952l0 459.712c0 25.408 20.288 45.952 45.312 45.952l755.264 0c25.024 0 45.312-20.608 45.312-45.952L934.912 343.424zM512 774.592c-123.712 0-224-102.848-224-229.76 0-126.912 100.288-229.76 224-229.76s224 102.848 224 229.76C736 671.68 635.712 774.592 512 774.592zM512 380.736c-88.384 0-160 73.472-160 164.096 0 90.624 71.616 164.096 160 164.096s160-73.472 160-164.096C672 454.208 600.384 380.736 512 380.736zM512 479.168c-35.328 0-64 29.376-64 65.664-11.008 0-22.016 0-32 0 0-54.4 42.944-98.432 96-98.432l0 0L512 479.168z" /></svg>