<?xml version="1.0" standalone="no"?><!DOCTYPE svg PUBLIC "-//W3C//DTD SVG 1.1//EN" "http://www.w3.org/Graphics/SVG/1.1/DTD/svg11.dtd"><svg class="icon" width="32px" height="32.00px" viewBox="0 0 1000 1000" version="1.1" xmlns="http://www.w3.org/2000/svg"><path fill="#ffffff" d="M414.9711 800.7861c21.951 0 39.7457-17.7929 39.7457-39.7441v-476.92664373554726c0-21.9481-17.7937-39.7441-39.7457-39.7441-21.949 0-39.7457 17.7949-39.7457 39.7441v476.92664373554726C375.2254 782.9931 393.022 800.7861 414.9711 800.7861zM911.7911 125.1402H573.9529659136789V85.39610144322148c0-21.9501-17.7937-39.7441-39.7457-39.7441h-39.74572172098545c-21.949 0-39.7457 17.7929-39.7457 39.7441v39.744053531705504H116.87966453335677c-21.951 0-39.7457 17.7929-39.7457 39.7441 0 21.9501 17.7937 39.7441 39.7457 39.7441h59.61808289927606V840.530120578248c0 43.9012 35.5904 79.4881 79.4914 79.4881h516.6923836440023c43.9031 0 79.4914-35.5869 79.4914-79.4881V204.628262038338h59.61808289927606c21.951 0 39.7457-17.7929 39.7457-39.7441C951.5358 142.9331 933.7421 125.1402 911.7911 125.1402zM772.6816 800.7861c0 21.9501-17.7937 39.7441-39.7457 39.7441H295.7349125955892c-21.949 0-39.7457-17.7929-39.7457-39.7441V204.628262038338h516.6923836440023V800.7860670465424zM613.6987 800.7861c21.951 0 39.7457-17.7929 39.7457-39.7441v-476.92664373554726c0-21.9481-17.7937-39.7441-39.7457-39.7441-21.951 0-39.7457 17.7949-39.7457 39.7441v476.92664373554726C573.953 782.9931 591.7476 800.7861 613.6987 800.7861z" /></svg>