<?xml version="1.0" standalone="no"?><!DOCTYPE svg PUBLIC "-//W3C//DTD SVG 1.1//EN" "http://www.w3.org/Graphics/SVG/1.1/DTD/svg11.dtd"><svg class="icon" width="32px" height="32.00px" viewBox="0 0 1024 1024" version="1.1" xmlns="http://www.w3.org/2000/svg"><path fill="#3fc4e4" d="M944.81024 30.476664A103.082618 103.082618 0 0 0 871.423608 0.000488H97.523786v195.047526H48.761905v48.761881h48.761881v146.285645l-48.761881-4.193522v53.101689L97.523786 438.857421v146.285645H48.761905v48.761882h48.761881v146.285644H48.761905v48.761882h48.761881v195.047526h731.428223c57.246449 0 146.285645-47.347787 146.285645-104.642998V103.912057a103.375189 103.375189 0 0 0-30.427414-73.435393zM926.475773 97.524251l-3.071999 821.832751c0 28.720748-23.308179 52.028928-51.980166 52.028928L780.190128 975.238118V48.762369l91.23348 3.120761c28.671986 0 55.052164 16.969135 55.052165 45.641121zM146.285668 780.190592v-146.285644h48.761881v-48.761882H146.285668V438.857421h48.761881V390.09554H146.285668V243.809895h48.761881V195.048014H146.285668V48.762369h585.142578v926.475749H146.285668v-146.285644h48.761881v-48.761882H146.285668z" /></svg>