<?xml version="1.0" standalone="no"?><!DOCTYPE svg PUBLIC "-//W3C//DTD SVG 1.1//EN" "http://www.w3.org/Graphics/SVG/1.1/DTD/svg11.dtd"><svg t="1494888578476" class="icon" style="" viewBox="0 0 1044 1024" version="1.1" xmlns="http://www.w3.org/2000/svg" p-id="14985" xmlns:xlink="http://www.w3.org/1999/xlink" width="32.625" height="32"><defs><style type="text/css"></style></defs><path d="M681.186 1010.702H123.389c-65.991 0-119.532-51.674-119.532-115.097v-767.21c0-63.542 53.668-115.097 119.532-115.097h796.857c65.987 0 119.527 51.674 119.527 115.097v537.132c0 21.219-17.808 38.365-39.842 38.365-22.04 0-39.842-17.148-39.842-38.365V128.395c0-21.219-17.93-38.365-39.842-38.365H123.39c-22.04 0-39.842 17.265-39.842 38.365v767.21c0 21.219 17.925 38.365 39.842 38.365h557.797c22.04 0 39.842 17.143 39.842 38.365s-17.803 38.365-39.842 38.365zM43.703 780.504c-10.211 0-20.422-3.717-28.141-11.268C0 754.247 0 729.907 15.562 714.922l198.466-190.993c36.36-35.008 91.764-43.759 137.835-21.582l216.146 104.071c15.316 7.433 33.741 4.557 45.82-7.192l357.835-344.579c15.566-14.984 40.838-14.984 56.404 0 15.562 14.989 15.562 39.324 0 54.314l-357.84 344.575c-36.356 35.013-91.759 43.764-137.83 21.582L316.252 571.052c-15.316-7.438-33.741-4.557-45.82 7.192L71.843 769.237c-7.719 7.551-17.93 11.268-28.141 11.268z m318.741-537.129c-21.912 0-39.842 17.265-39.842 38.365s17.93 38.365 39.842 38.365 39.842-17.265 39.842-38.365-17.93-38.365-39.842-38.365z m0 153.464c-65.864 0-119.527-51.674-119.527-115.097s53.663-115.097 119.527-115.097 119.527 51.674 119.527 115.097-53.663 115.097-119.527 115.097z m478.113 613.863c-22.04 0-39.842-17.143-39.842-38.365v-230.2c0-21.219 17.803-38.365 39.842-38.365s39.842 17.148 39.842 38.365v230.2c0 21.223-17.803 38.365-39.842 38.365z m159.372-153.465c-9.838 0-19.548-3.475-27.268-10.432L840.559 727.39 708.453 846.927c-16.062 14.507-41.211 13.786-56.277-1.682s-14.32-39.683 1.741-54.191l139.698-126.37c11.456-13.549 28.641-21.459 46.943-21.459s35.482 7.91 46.938 21.459l139.698 126.37c16.062 14.507 16.807 38.847 1.741 54.191-7.842 7.915-18.426 11.991-29.008 11.991z" p-id="14986" fill="#d8d8d8"></path></svg>