<?xml version="1.0" standalone="no"?><!DOCTYPE svg PUBLIC "-//W3C//DTD SVG 1.1//EN" "http://www.w3.org/Graphics/SVG/1.1/DTD/svg11.dtd"><svg class="icon" width="32px" height="32.00px" viewBox="0 0 1024 1024" version="1.1" xmlns="http://www.w3.org/2000/svg"><path fill="#ffffff" d="M512 512.438272c81.477632 0 147.762176-66.284544 147.762176-147.7632 0-81.475584-66.287616-147.761152-147.762176-147.761152-81.475584 0-147.760128 66.284544-147.760128 147.761152S430.524416 512.438272 512 512.438272zM512 277.46816c48.086016 0 87.207936 39.118848 87.207936 87.204864 0 48.08704-39.12192 87.20896-87.207936 87.20896s-87.205888-39.120896-87.205888-87.20896C424.794112 316.587008 463.913984 277.46816 512 277.46816zM963.39968 759.40352c-17.634304-16.40448-42.554368-31.4624-74.063872-44.754944-47.17568-19.903488-107.731968-35.503104-177.307648-45.832192 35.74784-43.723776 65.002496-86.390784 87.130112-127.167488 34.448384-63.479808 51.915776-123.021312 51.915776-176.973824 0-49.24928-8.941568-95.77472-26.57792-138.285056-17.000448-40.976384-41.597952-77.181952-73.111552-107.613184C689.160192 58.692608 604.145664 25.6 512 25.6c-92.844032 0-177.80224 32.169984-239.215616 90.585088-31.676416 30.12608-56.341504 66.30912-73.312256 107.544576-17.613824 42.799104-26.544128 90.21952-26.544128 140.94336 0 20.179968 2.45248 41.22112 7.314432 62.915584 0.069632 0.361472 0.146432 0.72192 0.226304 1.082368 1.90976 8.375296 4.1984 16.894976 6.849536 25.5232 1.783808 5.819392 3.733504 11.679744 5.850112 17.570816 0.064512 0.178176 0.128 0.355328 0.195584 0.533504 3.355648 9.317376 7.117824 18.73408 11.272192 28.218368 6.754304 15.408128 24.118272 22.402048 39.539712 15.925248 13.2096-5.552128 23.312384-21.499904 16.016384-40.124416-0.304128-0.776192-0.7424-1.882112-1.267712-3.21024-1.015808-2.550784-2.37568-5.951488-3.739648-9.351168-2.220032-5.53472-4.44416-11.06944-5.180416-12.893184-1.6896-4.733952-3.254272-9.427968-4.685824-14.067712-7.858176-25.499648-11.836416-49.69984-11.836416-72.12032 0-163.989504 114.532352-278.518784 278.521856-278.518784 161.386496 0 278.51776 117.133312 278.51776 278.518784 0 167.616512-213.01248 365.451264-278.544384 422.335488-24.628224-21.332992-70.055936-62.532608-117.1456-114.690048-0.052224-0.05632-0.10752-0.1024-0.157696-0.157696-6.230016-7.232512-15.7696-11.414528-26.002432-10.38848-93.500416 9.452544-174.41792 27.736064-234.005504 52.875264-31.50848 13.292544-56.426496 28.351488-74.061824 44.754944-21.952512 20.420608-33.084416 43.019264-33.084416 67.166208 0 36.911104 26.770432 89.254912 154.300416 129.000448C270.445568 983.189504 387.705856 998.4 512 998.4s241.554432-15.210496 330.18368-42.829824c127.529984-39.745536 154.300416-92.089344 154.300416-129.000448C996.484096 802.422784 985.352192 779.826176 963.39968 759.40352zM824.164352 897.758208c-82.950144 25.85088-193.81248 40.088576-312.164352 40.088576-118.347776 0-229.21216-14.237696-312.162304-40.088576-88.223744-27.495424-111.76448-57.684992-111.76448-71.18848 0-12.243968 18.368512-34.289664 70.127616-56.128512 50.205696-21.180416 121.314304-37.658624 201.4976-46.797824 68.922368 74.660864 130.64192 124.419072 133.354496 126.594048 5.535744 4.440064 12.24192 6.662144 18.946048 6.662144 6.708224 0 13.412352-2.22208 18.950144-6.662144 2.891776-2.322432 64.58368-52.074496 133.357568-126.594048 80.182272 9.1392 151.287808 25.62048 201.49248 46.797824 51.762176 21.837824 70.127616 43.88352 70.127616 56.128512C935.927808 840.073216 912.390144 870.262784 824.164352 897.758208zM324.412416 589.114368c0-19.380224-15.76448-35.142656-35.141632-35.142656s-35.14368 15.763456-35.14368 35.142656c0 19.377152 15.765504 35.142656 35.14368 35.142656S324.412416 608.490496 324.412416 589.114368z" /></svg>