<?xml version="1.0" standalone="no"?><!DOCTYPE svg PUBLIC "-//W3C//DTD SVG 1.1//EN" "http://www.w3.org/Graphics/SVG/1.1/DTD/svg11.dtd"><svg class="icon" width="32px" height="32.00px" viewBox="0 0 1024 1024" version="1.1" xmlns="http://www.w3.org/2000/svg"><path fill="#999" d="M512.932232 275.627525c-79.899748 0-144.67196 64.775282-144.67196 144.6781s64.772212 144.67503 144.67196 144.67503c79.902818 0 144.6781-64.772212 144.6781-144.67503S592.834027 275.627525 512.932232 275.627525zM512.932232 512.372483c-50.845015 0-92.064812-41.218774-92.064812-92.066859 0-50.845015 41.218774-92.064812 92.064812-92.064812 50.848085 0 92.069929 41.218774 92.069929 92.064812C605.002161 471.15371 563.780317 512.372483 512.932232 512.372483zM513.444908 65.183582c-216.2246 0-353.446891 153.316851-326.259692 364.827079 21.680788 168.630628 292.491611 473.639321 338.900593 529.538445C589.227895 893.789403 824.851311 599.404676 839.702554 430.010661 858.736049 212.972533 729.667461 65.183582 513.444908 65.183582zM789.133831 433.457156C780.975011 539.469632 572.127426 821.450864 526.08581 880.635825c-55.115272-59.184961-266.920212-332.184635-289.350061-447.178669C201.254653 251.54299 345.894891 117.804033 526.08581 117.804033 706.271612 117.804033 803.357787 248.567215 789.133831 433.457156z" /></svg>