<?xml version="1.0" standalone="no"?><!DOCTYPE svg PUBLIC "-//W3C//DTD SVG 1.1//EN" "http://www.w3.org/Graphics/SVG/1.1/DTD/svg11.dtd"><svg class="icon" width="32px" height="32.00px" viewBox="0 0 1024 1024" version="1.1" xmlns="http://www.w3.org/2000/svg"><path fill="#3fc4e4" d="M660.312309 532.671809c64.350177-47.370891 106.355548-123.384122 106.355548-209.238488 0-143.348825-116.633033-259.978103-259.988755-259.978103S246.690346 180.084495 246.690346 323.434344c0 86.900186 43.014392 163.770947 108.706178 210.989365-153.870624 60.617589-263.214348 210.381521-263.214348 385.513214 0 21.524223 17.454226 38.977733 38.97933 38.977733 21.526128 0 38.978307-17.453511 38.978307-38.977733 0-185.562253 150.969432-336.543919 336.539288-336.543919 1.60768 0 3.149866-0.209778 4.748335-0.246617 0.809468 0.056282 1.570839 0.246617 2.389518 0.246617 185.569856 0 336.537242 150.981666 336.537242 336.543919 0 21.524223 17.454226 38.977733 38.980354 38.977733 21.525105 0 38.97933-17.453511 38.97933-38.977733C928.312857 743.015468 816.674786 592.033801 660.312309 532.671809zM324.647983 323.434344c0-100.375082 81.660111-182.021613 182.030095-182.021613s182.030095 81.647555 182.030095 182.021613c0 100.356662-81.660111 182.003194-182.030095 182.003194S324.647983 423.789982 324.647983 323.434344z" /></svg>