<?xml version="1.0" standalone="no"?><!DOCTYPE svg PUBLIC "-//W3C//DTD SVG 1.1//EN" "http://www.w3.org/Graphics/SVG/1.1/DTD/svg11.dtd"><svg class="icon" width="32px" height="32.00px" viewBox="0 0 1024 1024" version="1.1" xmlns="http://www.w3.org/2000/svg"><path fill="#aaaaaa" d="M148.053333 714.112c-5.653333 0-11.264-2.218667-15.466667-6.656-8.106667-8.533333-7.765333-22.037333 0.789333-30.165333l213.781333-203.008c7.914667-7.552 20.224-7.850667 28.544-0.746667l126.613333 108.202667 36.394667-41.002667c7.850667-8.853333 21.312-9.621333 30.122667-1.792s9.6 21.312 1.792 30.122667l-50.282667 56.64c-7.722667 8.682667-20.970667 9.621333-29.824 2.048l-127.914667-109.312-199.850667 189.781333C158.613333 712.170667 153.344 714.112 148.053333 714.112zM576 768 119.552 768c-46.656-0.469333-69.248-43.946667-76.16-69.717333C42.901333 696.490667 42.666667 694.656 42.666667 692.778667L42.666667 192c0-11.776 0-21.333333 0-21.333333l646.997333 0c1.728 0 3.456 0.213333 5.12 0.618667C721.984 178.026667 768 201.386667 768 246.144l0 74.112c0 11.776-9.536 21.333333-21.333333 21.333333s-21.333333-9.557333-21.333333-21.333333l0-74.112c0-19.050667-30.442667-30.144-38.72-32.810667L83.882667 213.333333l0 476.181333c2.816 8.213333 13.909333 35.84 35.904 36.053333L576 725.568c11.797333 0 21.333333 9.536 21.333333 21.333333S587.797333 768 576 768zM224 425.664c-41.173333 0-74.666667-33.216-74.666667-74.048s33.493333-74.048 74.666667-74.048 74.666667 33.216 74.666667 74.048S265.173333 425.664 224 425.664zM224 320.234667c-17.642667 0-32 14.08-32 31.381333s14.357333 31.381333 32 31.381333 32-14.08 32-31.381333S241.642667 320.234667 224 320.234667zM603.562667 886.826667c-11.050667-9.493333-11.562667-27.712 6.826667-39.146667C613.354667 845.824 682.666667 811.477333 682.666667 725.333333l0-85.333333c0 0 0-21.333333 22.250667-21.333333C725.333333 618.666667 725.333333 640 725.333333 640l0 84.458667C725.333333 789.333333 689.088 828.757333 661.333333 853.333333c41.898667-6.208 108.288-23.786667 136.448-61.333333 48-64 52.288-116.970667 55.530667-167.978667 1.344-21.290667 14.634667-24.448 23.594667-24.448l42.666667 0-125.482667-170.922667-164.032 191.424c-6.144 7.125333-17.856 8.042667-25.002667 1.92-3.904-3.328-6.165333-8.256-6.165333-13.44 0-4.288 1.514667-8.405333 4.309333-11.584l177.429333-207.04c6.784-7.872 20.138667-7.872 26.901333 0l164.544 216.576C987.669333 627.328 972.672 640 960 640c-21.333333 0-14.442667 0-21.333333 0l-42.666667 0c-6.656 55.552-27.050667 132.970667-70.634667 178.858667-78.698667 82.922667-192.448 73.621333-198.464 73.706667C626.901333 892.565333 610.666667 892.906667 603.562667 886.826667z" /></svg>