<?xml version="1.0" standalone="no"?><!DOCTYPE svg PUBLIC "-//W3C//DTD SVG 1.1//EN" "http://www.w3.org/Graphics/SVG/1.1/DTD/svg11.dtd"><svg t="1495519522222" class="icon" style="" viewBox="0 0 1024 1024" version="1.1" xmlns="http://www.w3.org/2000/svg" p-id="6157" xmlns:xlink="http://www.w3.org/1999/xlink" width="32" height="32"><defs><style type="text/css"></style></defs><path d="M100.51072 684.33408c-0.33792 0-0.68608 0-1.05472-0.0256a26.6496 26.6496 0 0 1-25.60512-27.68896c3.7376-96.2816 65.52576-278.3488 272.61952-278.3488 171.60192 0 231.93088 111.78496 246.33344 146.03776 1.26464 3.00032 2.74944 6.75328 4.23424 11.008 28.4416-16.16896 71.01952-27.45344 130.07872-11.40736 6.17472 2.10944 104.15616 38.29248 104.15616 133.74464a26.6752 26.6752 0 0 1-53.34528 0c0-57.6512-64.16896-81.93536-66.90304-82.93888-70.22592-19.02592-104.39168 17.5616-112.22528 27.72992-1.4592 2.4576-3.22048 4.79232-5.2992 6.91712a26.63424 26.63424 0 0 1-35.456 2.38592 26.68544 26.68544 0 0 1-6.41024-34.88768c0.57344-10.30656-7.30624-41.65632-33.19296-73.09312C491.32032 470.85056 439.48544 431.616 346.4704 431.616c-208.09728 0-218.96192 217.80992-219.32032 227.08736a26.65984 26.65984 0 0 1-26.63936 25.63072z" fill="" p-id="6158"></path><path d="M741.16096 568.61696a26.67008 26.67008 0 0 1-24.02816-38.22592c14.73024-30.63296 16.64512-65.16224 5.39648-97.21856-11.25376-32.06656-34.31936-57.81504-64.95232-72.53504-63.24736-30.33088-139.42272-3.64544-169.76896 59.61216a26.67008 26.67008 0 1 1-48.08192-23.10656c43.0848-89.74848 151.2192-127.69792 240.94208-84.59264 43.48416 20.87936 76.22656 57.45152 92.19584 102.95808 15.96928 45.5168 13.2608 94.52544-7.64416 137.98912a26.6496 26.6496 0 0 1-24.05888 15.11936zM403.0208 326.6304a26.58304 26.58304 0 0 1-13.07648-3.43552l-61.16352-34.48832a26.68544 26.68544 0 0 1-10.13248-36.33664 26.73152 26.73152 0 0 1 36.33664-10.13248l61.1584 34.4832a26.68544 26.68544 0 0 1 10.13248 36.33664 26.65472 26.65472 0 0 1-23.25504 13.57312zM586.53184 245.41184a26.6752 26.6752 0 0 1-26.6752-26.67008V135.62368a26.6752 26.6752 0 0 1 53.34528 0v83.11808a26.67008 26.67008 0 0 1-26.67008 26.67008zM777.92768 308.46464a26.66496 26.66496 0 0 1-18.86208-45.53216l61.1328-61.11232a26.65984 26.65984 0 0 1 37.71392 0 26.66496 26.66496 0 0 1 0 37.71904l-61.1328 61.1072a26.5728 26.5728 0 0 1-18.85184 7.81824zM927.62624 469.632l-56.45824-0.0256a26.6752 26.6752 0 0 1 0.01536-53.34528l56.45824 0.0256a26.6752 26.6752 0 0 1-0.01536 53.34528zM549.12 751.73376l-450.99008-0.00512a26.6752 26.6752 0 0 0 0 53.34528h450.99008v-53.34016zM890.95168 751.73888H752.64v53.34528h138.31168a26.67008 26.67008 0 1 0 0-53.34528z" fill="" p-id="6159"></path><path d="M548.88448 778.40896m-26.63936 0a26.63936 26.63936 0 1 0 53.27872 0 26.63936 26.63936 0 1 0-53.27872 0Z" fill="" p-id="6160"></path><path d="M645.53472 778.39872m-26.63936 0a26.63936 26.63936 0 1 0 53.27872 0 26.63936 26.63936 0 1 0-53.27872 0Z" fill="" p-id="6161"></path><path d="M752.72704 778.39872m-26.63936 0a26.63936 26.63936 0 1 0 53.27872 0 26.63936 26.63936 0 1 0-53.27872 0Z" fill="" p-id="6162"></path><path d="M292.87936 896.22016m-26.63936 0a26.63936 26.63936 0 1 0 53.27872 0 26.63936 26.63936 0 1 0-53.27872 0Z" fill="" p-id="6163"></path><path d="M382.49472 896.22016m-26.63936 0a26.63936 26.63936 0 1 0 53.27872 0 26.63936 26.63936 0 1 0-53.27872 0Z" fill="" p-id="6164"></path><path d="M479.98976 896.22016m-26.63936 0a26.63936 26.63936 0 1 0 53.27872 0 26.63936 26.63936 0 1 0-53.27872 0Z" fill="" p-id="6165"></path><path d="M294.19008 869.54496H215.08096a26.6752 26.6752 0 0 0 0 53.33504h79.10912v-53.33504zM774.02112 869.5552l-294.22592-0.00512v53.34016l294.22592 0.01024a26.6752 26.6752 0 0 0 0-53.34528z" fill="" p-id="6166"></path></svg>