<?xml version="1.0" standalone="no"?><!DOCTYPE svg PUBLIC "-//W3C//DTD SVG 1.1//EN" "http://www.w3.org/Graphics/SVG/1.1/DTD/svg11.dtd"><svg t="1495518823055" class="icon" style="" viewBox="0 0 1024 1024" version="1.1" xmlns="http://www.w3.org/2000/svg" p-id="2500" xmlns:xlink="http://www.w3.org/1999/xlink" width="32" height="32"><defs><style type="text/css"></style></defs><path d="M226.584 749.616c-3.336-3.336-8.744-3.336-12.08 0l-108.744 108.752c-3.336 3.336-3.336 8.744 0 12.08l48.336 48.328c3.336 3.336 8.744 3.336 12.08 0l108.744-108.752c3.336-3.336 3.336-8.744 0-12.08L226.584 749.616zM187.328 537.632 187.328 469.28c0-4.72-3.824-8.544-8.544-8.544L24.992 460.736c-4.72 0-8.544 3.824-8.544 8.544l0 68.352c0 4.72 3.824 8.544 8.544 8.544l153.792 0C183.504 546.176 187.328 542.352 187.328 537.632zM554.72 836.672l-68.352 0c-4.72 0-8.544 3.824-8.544 8.544l0 153.792c0 4.72 3.824 8.544 8.544 8.544l68.352 0c4.72 0 8.544-3.824 8.544-8.544l0-153.792C563.264 840.496 559.44 836.672 554.72 836.672zM999.008 460.736l-153.792 0c-4.72 0-8.544 3.824-8.544 8.544l0 68.352c0 4.72 3.824 8.544 8.544 8.544l153.792 0c4.72 0 8.544-3.824 8.544-8.544L1007.552 469.28C1007.552 464.56 1003.728 460.736 999.008 460.736zM780.328 292.536c3.336 3.336 8.744 3.336 12.08 0l108.752-108.744c3.336-3.336 3.336-8.744 0-12.08l-48.328-48.336c-3.336-3.336-8.744-3.336-12.088 0L732 232.12c-3.336 3.336-3.336 8.744 0 12.08L780.328 292.536zM486.368 187.328l68.352 0c4.72 0 8.544-3.824 8.544-8.544L563.264 24.992c0-4.72-3.824-8.544-8.544-8.544l-68.352 0c-4.72 0-8.544 3.824-8.544 8.544l0 153.792C477.824 183.504 481.648 187.328 486.368 187.328zM818.048 757.624c-3.336-3.336-8.744-3.336-12.08 0l-48.328 48.336c-3.336 3.336-3.336 8.744 0 12.08l108.744 108.752c3.336 3.336 8.744 3.336 12.08 0l48.336-48.328c3.336-3.336 3.336-8.744 0-12.08L818.048 757.624zM240.128 283.456c3.336 3.336 8.744 3.336 12.08 0l48.328-48.336c3.336-3.336 3.336-8.744 0-12.08L191.8 114.296c-3.336-3.336-8.744-3.336-12.08 0l-48.328 48.336c-3.336 3.336-3.336 8.744 0 12.08L240.128 283.456zM512.608 256.824c-141.296 0-255.84 114.544-255.84 255.84s114.544 255.84 255.84 255.84 255.84-114.544 255.84-255.84S653.904 256.824 512.608 256.824zM512.608 672.568c-88.312 0-159.904-71.592-159.904-159.904s71.592-159.904 159.904-159.904 159.904 71.592 159.904 159.904S600.92 672.568 512.608 672.568z" p-id="2501" fill="#999"></path></svg>